<?xml version="1.0" encoding="iso-8859-1"?>
<!-- Uploaded to: SVG Repo, www.svgrepo.com, Generator: SVG Repo Mixer Tools -->
<svg height="800px" width="800px" version="1.1" id="Layer_1" xmlns="http://www.w3.org/2000/svg" xmlns:xlink="http://www.w3.org/1999/xlink" 
	 viewBox="0 0 512.001 512.001" xml:space="preserve">
<ellipse transform="matrix(-0.7071 -0.7071 0.7071 -0.7071 124.8033 299.0232)" style="fill:#E95353;" cx="124.331" cy="123.664" rx="59.025" ry="152.21"/>
<g style="opacity:0.15;">
	<path style="fill:#202020;" d="M40.463,218.732c-23.051-23.051,6.455-89.921,65.898-149.364
		c21.13-21.13,43.198-38.473,63.903-51.021C143.383,30.341,112.079,52.452,82.6,81.931C23.158,141.374-6.347,208.244,16.702,231.295
		c14.858,14.858,47.923,7.878,85.467-14.876C74.843,228.612,52.083,230.352,40.463,218.732z"/>
</g>
<ellipse transform="matrix(-0.7071 -0.7071 0.7071 -0.7071 118.4981 283.8046)" style="fill:#FFF1CE;" cx="118.027" cy="117.361" rx="16.721" ry="43.121"/>
<path style="fill:#8C5549;" d="M231.964,16.034L231.964,16.034c23.052,23.056-6.454,89.924-65.894,149.365
	S39.76,254.348,16.702,231.297l0,0c6.586,8.714,11.505,19.521,19.532,27.548c53.12,53.12,123.474,74.931,181.947,62.329
	l28.794,28.795c27.112,27.11,71.075,27.114,98.188,0l4.092-4.091c27.112-27.114,27.112-71.077,0-98.189l-28.796-28.794
	c12.604-58.47-9.209-128.825-62.33-181.946C250.102,28.924,240.68,22.62,231.964,16.034z"/>
<path style="fill:#FFF1CE;" d="M343.545,385.449l49.696,49.696l-2.548,27.493l0,0c-1.075,10.79,2.514,21.957,10.779,30.223
	c14.625,14.624,38.334,14.624,52.959,0c7.381-7.382,11.032-17.079,10.961-26.752c9.676,0.069,19.371-3.58,26.754-10.963
	c14.622-14.622,14.622-38.333-0.002-52.958c-7.197-7.199-16.595-10.845-26.029-10.957h-0.004c-2.561-0.03-5.122,0.194-7.649,0.685
	l-23.925,2.146l-70.371-70.371c-3.387,8.064-8.347,15.622-14.91,22.187l-4.092,4.091c-6.566,6.567-14.123,11.526-22.187,14.911"/>
<g>
	<path style="fill:#202020;" d="M93.868,158.27c11.408,0,27.418-8.924,41.783-23.289c8.843-8.844,15.876-18.613,19.801-27.51
		c6.728-15.25,2.178-23.081-1.133-26.393c-2.107-2.107-5.92-4.62-12.116-4.62c-11.407,0-27.418,8.924-41.784,23.289
		c-17.475,17.476-30.771,41.798-18.668,53.902C83.855,155.757,87.669,158.27,93.868,158.27z M112.003,111.335
		c12.139-12.138,24.379-18.49,30.198-18.49c0.143,0,0.269,0.005,0.376,0.012c0.346,3.623-4.073,16.095-18.514,30.536
		c-12.137,12.138-24.378,18.49-30.195,18.49c-0.144,0-0.27-0.005-0.377-0.012C93.144,138.247,97.564,125.774,112.003,111.335z"/>
	<path style="fill:#202020;" d="M497.938,396.396c-8.468-8.47-19.734-13.214-31.731-13.357c-2.987-0.035-5.971,0.219-8.874,0.752
		l-19.712,1.768l-63.909-63.911c2.666-7.908,4.07-16.278,4.07-24.866c0-20.735-8.074-40.227-22.734-54.888l-25.693-25.691
		c11.618-62.324-13.192-132.808-65.433-185.049c-6.65-6.649-13.998-12.048-21.103-17.271c-1.884-1.385-3.755-2.763-5.598-4.152
		C230.468,3.281,221.197,0,209.637,0C175.198,0,123.06,29.885,76.808,76.136c-29.449,29.449-52.741,61.702-65.586,90.817
		c-13.718,31.092-14.002,55.742-0.853,69.562c2.211,2.958,4.271,6.24,6.448,9.716c3.931,6.282,7.996,12.776,13.626,18.408
		c43.347,43.347,99.594,68.209,154.319,68.209c10.478,0,20.794-0.935,30.73-2.779l25.693,25.694
		c14.661,14.66,34.154,22.734,54.888,22.734c0.002,0,0.001,0,0.002,0c18.189,0,35.424-6.218,49.278-17.643
		c0.309-0.255,0.605-0.527,0.91-0.787c0.648-0.552,1.299-1.097,1.931-1.671c0.94-0.853,1.862-1.73,2.764-2.633l4.093-4.092
		c1.017-1.017,1.994-2.061,2.947-3.123c0.257-0.286,0.5-0.581,0.752-0.871c0.707-0.811,1.399-1.631,2.068-2.467
		c0.236-0.295,0.466-0.594,0.697-0.893c0.707-0.908,1.391-1.83,2.054-2.764c0.142-0.201,0.285-0.401,0.426-0.603
		c0.804-1.157,1.579-2.331,2.316-3.526l62.434,62.434c1.717,1.716,4.109,2.589,6.526,2.366l23.925-2.146
		c0.279-0.025,0.556-0.064,0.831-0.118c1.949-0.378,3.97-0.554,5.992-0.535c7.687,0.093,14.908,3.132,20.333,8.559
		c11.406,11.405,11.407,29.965,0.002,41.369c-5.528,5.529-12.867,8.565-20.689,8.565c-0.09,0-0.181-0.001-0.271-0.001
		c-2.172,0-4.257,0.863-5.794,2.4c-1.551,1.551-2.415,3.66-2.399,5.852c0.058,7.897-2.983,15.319-8.56,20.899
		c-11.407,11.404-29.966,11.405-41.371,0c-6.227-6.226-9.296-14.833-8.415-23.672l2.548-27.493c0.225-2.427-0.641-4.828-2.364-6.55
		l-49.696-49.696c-3.201-3.199-8.388-3.199-11.588,0c-3.2,3.201-3.2,8.388,0,11.588l46.977,46.975l-2.187,23.606
		c-1.364,13.691,3.425,27.115,13.139,36.83c8.897,8.896,20.585,13.345,32.272,13.345s23.375-4.448,32.273-13.346
		c6.869-6.87,11.273-15.531,12.781-24.933c9.403-1.508,18.065-5.911,24.934-12.781C515.735,443.145,515.734,414.191,497.938,396.396
		z M88.394,87.725c42.669-42.67,91.393-71.338,121.242-71.338c7.362,0,12.925,1.831,16.534,5.44c0.531,0.531,1.024,1.104,1.477,1.72
		c14.054,19.079-9.236,77.921-67.371,136.057c-36.273,36.274-76.917,62.417-106.63,69.443c-5.236,1.238-10.14,1.894-14.614,1.894
		c-7.363,0-12.927-1.83-16.536-5.44C5.498,208.502,28.381,147.739,88.394,87.725z M296.07,362.109
		c-16.358,0-31.737-6.369-43.303-17.935l-28.794-28.795c-1.552-1.553-3.643-2.4-5.793-2.4c-0.575,0-1.153,0.061-1.726,0.184
		c-10.15,2.188-20.813,3.298-31.695,3.298c-50.41,0-102.434-23.112-142.731-63.41c-1.75-1.75-3.349-3.685-4.875-5.751
		c0.619,0.02,1.245,0.028,1.879,0.028c6.992,0,14.722-1.252,22.975-3.602c32.402-9.226,72.994-35.672,109.856-72.534
		c19.428-19.428,36.151-40.074,48.988-60.237c6.62-10.398,12.227-20.67,16.597-30.577c2.608-5.909,4.729-11.587,6.367-17.002
		c0.066-0.216,0.122-0.429,0.187-0.645c0.202-0.682,0.404-1.363,0.59-2.037c0.11-0.397,0.208-0.785,0.311-1.179
		c0.129-0.486,0.264-0.977,0.385-1.458c0.121-0.482,0.227-0.955,0.341-1.432c0.092-0.387,0.19-0.778,0.276-1.162
		c0.12-0.535,0.225-1.062,0.334-1.591c0.066-0.318,0.139-0.64,0.201-0.956c0.109-0.558,0.204-1.108,0.302-1.659
		c0.049-0.28,0.106-0.564,0.153-0.841c0.098-0.587,0.181-1.165,0.267-1.744c0.034-0.235,0.075-0.474,0.108-0.708
		c0.072-0.528,0.13-1.045,0.191-1.565c0.033-0.28,0.073-0.564,0.103-0.841c0.055-0.512,0.094-1.015,0.138-1.52
		c0.024-0.276,0.055-0.558,0.075-0.834c0.037-0.498,0.059-0.988,0.085-1.479c0.014-0.274,0.036-0.554,0.047-0.826
		c0.017-0.437,0.021-0.864,0.029-1.295c0.007-0.315,0.02-0.635,0.022-0.947c1.51,1.322,2.976,2.681,4.377,4.082
		c49.584,49.583,72.618,116.418,60.113,174.425c-0.586,2.72,0.248,5.552,2.217,7.52l28.796,28.794
		c11.565,11.565,17.934,26.942,17.934,43.3c0,8.139-1.58,16.034-4.588,23.338c-0.064,0.133-0.139,0.26-0.197,0.398
		c-2.309,5.5-5.375,10.577-9.144,15.153c-0.055,0.066-0.113,0.128-0.167,0.193c-0.575,0.692-1.161,1.374-1.768,2.043
		c-0.671,0.738-1.36,1.464-2.071,2.174l-4.093,4.092c-0.712,0.712-1.439,1.403-2.178,2.075c-0.521,0.473-1.057,0.925-1.593,1.379
		c-0.219,0.185-0.429,0.379-0.65,0.56c-4.573,3.765-9.645,6.827-15.142,9.135c-0.154,0.064-0.298,0.142-0.447,0.215
		C312.067,360.536,304.191,362.109,296.07,362.109z"/>
</g>
<g style="opacity:0.15;">
	<path style="fill:#202020;" d="M356.629,320.477l-4.092,4.091c-27.112,27.114-71.076,27.11-98.188,0l-21.787-21.788
		c-0.001-0.001-0.002-0.002-0.003-0.003c-7.283-7.283-14.247-5.629-14.247-5.629l-0.02-0.019
		c-41.276,6.799-87.699-2.975-129.523-28.246c-0.392-0.251-0.818-0.511-1.29-0.781c-0.657-0.402-1.31-0.818-1.964-1.229
		c-8.2-5.645-2.088-10.174,1.369-12.04c0.645-0.304,1.288-0.607,1.938-0.923l0.003-0.001c25.597-12.446,54.673-33.527,82.161-61.018
		c5.083-5.082,9.941-10.22,14.572-15.38c23.52-26.756,61.638-79.004,54.474-130.039c-0.773-1.203-1.639-2.329-2.611-3.369
		c-2.55,31.373-30.019,78.868-73.536,122.386c-40.075,40.075-83.526,66.541-114.651,72.47c-0.839,0.159-1.666,0.302-2.486,0.432
		c-0.174,0.027-0.346,0.054-0.52,0.08c-0.726,0.109-1.444,0.206-2.155,0.293c-0.137,0.016-0.275,0.035-0.41,0.05
		c-1.682,0.193-3.322,0.317-4.915,0.373c-0.156,0.007-0.308,0.009-0.463,0.013c-0.645,0.017-1.283,0.023-1.912,0.017
		c-0.161-0.002-0.323-0.002-0.483-0.005c-1.525-0.028-3.002-0.125-4.43-0.293c-0.14-0.016-0.276-0.037-0.415-0.055
		c-0.568-0.072-1.126-0.156-1.677-0.251c-0.174-0.029-0.346-0.06-0.517-0.092c-0.579-0.109-1.149-0.229-1.709-0.364
		c-0.092-0.022-0.187-0.04-0.277-0.063c-0.653-0.162-1.293-0.342-1.921-0.541c-0.115-0.036-0.226-0.078-0.34-0.115
		c-0.499-0.163-0.989-0.338-1.469-0.525c-0.17-0.067-0.34-0.134-0.507-0.203c-0.45-0.185-0.889-0.38-1.323-0.586
		c-0.135-0.064-0.274-0.126-0.409-0.192c-0.554-0.274-1.097-0.565-1.622-0.875c-0.075-0.044-0.146-0.093-0.221-0.138
		c-0.445-0.269-0.879-0.551-1.303-0.844c-0.153-0.106-0.302-0.214-0.451-0.324c-0.354-0.258-0.7-0.527-1.038-0.802
		c-0.139-0.114-0.28-0.225-0.416-0.342c-0.456-0.389-0.9-0.792-1.326-1.217c6.586,8.714,11.505,19.521,19.532,27.548
		c1.273,1.273,2.562,2.517,3.856,3.748c0.997,0.956,2.004,1.895,3.013,2.829c0.008,0.007,0.015,0.014,0.022,0.021h0.001
		c52.213,48.298,119.074,67.798,175.054,55.731l28.794,28.795c27.112,27.11,71.075,27.114,98.188,0l4.092-4.091
		c11.052-11.052,17.594-24.906,19.637-39.275C363.914,312.239,360.565,316.54,356.629,320.477z"/>
</g>
</svg>